HIERARCHY
ROOT Hips
{
	OFFSET -14.64140 90.27770 -84.91600
	CHANNELS 6 Xposition Yposition Zposition Zrotation Xrotation Yrotation
	JOINT Spine
	{
		OFFSET 0.00000 13.20850 -1.60436
		CHANNELS 3 Zrotation Xrotation Yrotation
		JOINT Spine1
		{
			OFFSET 0.00000 8.61716 0.00000
			CHANNELS 3 Zrotation Xrotation Yrotation
			JOINT Spine2
			{
				OFFSET 0.00000 8.61717 0.00000
				CHANNELS 3 Zrotation Xrotation Yrotation
				JOINT Spine3
				{
					OFFSET 0.00000 8.61717 0.00000
					CHANNELS 3 Zrotation Xrotation Yrotation
					JOINT Neck
					{
						OFFSET 0.00000 11.07920 1.10792
						CHANNELS 3 Zrotation Xrotation Yrotation
						JOINT Neck1
						{
							OFFSET 0.00000 7.08032 0.00000
							CHANNELS 3 Zrotation Xrotation Yrotation
							JOINT Head
							{
								OFFSET 0.00000 7.08031 0.00000
								CHANNELS 3 Zrotation Xrotation Yrotation
								End site
								{
									OFFSET 0.00000 0.00000 0.00000
								}
							}
						}
					}
					JOINT RightShoulder
					{
						OFFSET -0.01000 7.91373 5.19711
						CHANNELS 3 Zrotation Xrotation Yrotation
						JOINT RightArm
						{
							OFFSET -18.41580 0.00000 0.00000
							CHANNELS 3 Zrotation Xrotation Yrotation
							JOINT RightForeArm
							{
								OFFSET -29.11090 0.00000 0.00000
								CHANNELS 3 Zrotation Xrotation Yrotation
								JOINT RightHand
								{
									OFFSET -24.65040 0.00000 0.00000
									CHANNELS 3 Zrotation Xrotation Yrotation
									JOINT RightHandThumb1
									{
										OFFSET -5.35114 -0.85590 3.97906
										CHANNELS 3 Zrotation Xrotation Yrotation
										JOINT RightHandThumb2
										{
											OFFSET -4.52789 0.00000 0.00000
											CHANNELS 3 Zrotation Xrotation Yrotation
											JOINT RightHandThumb3
											{
												OFFSET -2.46976 0.00000 0.00000
												CHANNELS 3 Zrotation Xrotation Yrotation
												End site
												{
													OFFSET 0.00000 0.00000 0.00000
												}
											}
										}
									}
									JOINT RightHandIndex1
									{
										OFFSET -14.26970 0.00000 2.88139
										CHANNELS 3 Zrotation Xrotation Yrotation
										JOINT RightHandIndex2
										{
											OFFSET -5.48836 0.00000 0.00000
											CHANNELS 3 Zrotation Xrotation Yrotation
											JOINT RightHandIndex3
											{
												OFFSET -3.01859 0.00000 0.00000
												CHANNELS 3 Zrotation Xrotation Yrotation
												End site
												{
													OFFSET 0.00000 0.00000 0.00000
												}
											}
										}
									}
									JOINT RightHandMiddle1
									{
										OFFSET -14.26970 0.00000 -0.09147
										CHANNELS 3 Zrotation Xrotation Yrotation
										JOINT RightHandMiddle2
										{
											OFFSET -6.17441 0.00000 0.00000
											CHANNELS 3 Zrotation Xrotation Yrotation
											JOINT RightHandMiddle3
											{
												OFFSET -3.56743 0.00000 0.00000
												CHANNELS 3 Zrotation Xrotation Yrotation
												End site
												{
													OFFSET 0.00000 0.00000 0.00000
												}
											}
										}
									}
									JOINT RightHandRing1
									{
										OFFSET -12.69180 0.00000 -3.06433
										CHANNELS 3 Zrotation Xrotation Yrotation
										JOINT RightHandRing2
										{
											OFFSET -5.62556 0.00000 0.00000
											CHANNELS 3 Zrotation Xrotation Yrotation
											JOINT RightHandRing3
											{
												OFFSET -3.56744 0.00000 0.00000
												CHANNELS 3 Zrotation Xrotation Yrotation
												End site
												{
													OFFSET 0.00000 0.00000 0.00000
												}
											}
										}
									}
									JOINT RightHandPinky1
									{
										OFFSET -11.11390 0.00000 -6.03719
										CHANNELS 3 Zrotation Xrotation Yrotation
										JOINT RightHandPinky2
										{
											OFFSET -4.52789 0.00000 0.00000
											CHANNELS 3 Zrotation Xrotation Yrotation
											JOINT RightHandPinky3
											{
												OFFSET -2.46976 0.00000 0.00000
												CHANNELS 3 Zrotation Xrotation Yrotation
												End site
												{
													OFFSET 0.00000 0.00000 0.00000
												}
											}
										}
									}
								}
							}
						}
					}
					JOINT LeftShoulder
					{
						OFFSET 0.01000 7.91373 5.19711
						CHANNELS 3 Zrotation Xrotation Yrotation
						JOINT LeftArm
						{
							OFFSET 18.41580 0.00000 0.00000
							CHANNELS 3 Zrotation Xrotation Yrotation
							JOINT LeftForeArm
							{
								OFFSET 29.11090 0.00000 0.00000
								CHANNELS 3 Zrotation Xrotation Yrotation
								JOINT LeftHand
								{
									OFFSET 24.65040 0.00000 0.00000
									CHANNELS 3 Zrotation Xrotation Yrotation
									JOINT LeftHandThumb1
									{
										OFFSET 5.35114 -0.85590 3.97906
										CHANNELS 3 Zrotation Xrotation Yrotation
										JOINT LeftHandThumb2
										{
											OFFSET 4.52789 0.00000 0.00000
											CHANNELS 3 Zrotation Xrotation Yrotation
											JOINT LeftHandThumb3
											{
												OFFSET 2.46977 0.00000 0.00000
												CHANNELS 3 Zrotation Xrotation Yrotation
												End site
												{
													OFFSET 0.00000 0.00000 0.00000
												}
											}
										}
									}
									JOINT LeftHandIndex1
									{
										OFFSET 14.26970 0.00000 2.88139
										CHANNELS 3 Zrotation Xrotation Yrotation
										JOINT LeftHandIndex2
										{
											OFFSET 5.48836 0.00000 0.00000
											CHANNELS 3 Zrotation Xrotation Yrotation
											JOINT LeftHandIndex3
											{
												OFFSET 3.01859 0.00000 0.00000
												CHANNELS 3 Zrotation Xrotation Yrotation
												End site
												{
													OFFSET 0.00000 0.00000 0.00000
												}
											}
										}
									}
									JOINT LeftHandMiddle1
									{
										OFFSET 14.26970 0.00000 -0.09147
										CHANNELS 3 Zrotation Xrotation Yrotation
										JOINT LeftHandMiddle2
										{
											OFFSET 6.17440 0.00000 0.00000
											CHANNELS 3 Zrotation Xrotation Yrotation
											JOINT LeftHandMiddle3
											{
												OFFSET 3.56744 0.00000 0.00000
												CHANNELS 3 Zrotation Xrotation Yrotation
												End site
												{
													OFFSET 0.00000 0.00000 0.00000
												}
											}
										}
									}
									JOINT LeftHandRing1
									{
										OFFSET 12.69180 0.00000 -3.06433
										CHANNELS 3 Zrotation Xrotation Yrotation
										JOINT LeftHandRing2
										{
											OFFSET 5.62556 0.00000 0.00000
											CHANNELS 3 Zrotation Xrotation Yrotation
											JOINT LeftHandRing3
											{
												OFFSET 3.56744 0.00000 0.00000
												CHANNELS 3 Zrotation Xrotation Yrotation
												End site
												{
													OFFSET 0.00000 0.00000 0.00000
												}
											}
										}
									}
									JOINT LeftHandPinky1
									{
										OFFSET 11.11390 0.00000 -6.03719
										CHANNELS 3 Zrotation Xrotation Yrotation
										JOINT LeftHandPinky2
										{
											OFFSET 4.52789 0.00000 0.00000
											CHANNELS 3 Zrotation Xrotation Yrotation
											JOINT LeftHandPinky3
											{
												OFFSET 2.46976 0.00000 0.00000
												CHANNELS 3 Zrotation Xrotation Yrotation
												End site
												{
													OFFSET 0.00000 0.00000 0.00000
												}
											}
										}
									}
								}
							}
						}
					}
					JOINT pCube4
					{
						OFFSET 0.00000 10.91090 1.10792
						CHANNELS 3 Zrotation Xrotation Yrotation
						End site
						{
							OFFSET 0.00000 0.00000 0.00000
						}
					}
				}
			}
		}
	}
	JOINT RightUpLeg
	{
		OFFSET -9.98441 0.00000 0.00000
		CHANNELS 3 Zrotation Xrotation Yrotation
		JOINT RightLeg
		{
			OFFSET 0.00000 -42.11790 0.00000
			CHANNELS 3 Zrotation Xrotation Yrotation
			JOINT RightFoot
			{
				OFFSET 0.00000 -45.00020 -0.00001
				CHANNELS 3 Zrotation Xrotation Yrotation
				JOINT RightForeFoot
				{
					OFFSET 0.00000 -3.74820 0.00000
					CHANNELS 3 Zrotation Xrotation Yrotation
					JOINT RightToeBase
					{
						OFFSET 0.00000 0.06325 14.43120
						CHANNELS 3 Zrotation Xrotation Yrotation
						End site
						{
							OFFSET 0.00000 0.00000 0.00000
						}
					}
				}
			}
		}
	}
	JOINT LeftUpLeg
	{
		OFFSET 9.98441 0.00000 0.00000
		CHANNELS 3 Zrotation Xrotation Yrotation
		JOINT LeftLeg
		{
			OFFSET 0.00000 -42.11800 0.00000
			CHANNELS 3 Zrotation Xrotation Yrotation
			JOINT LeftFoot
			{
				OFFSET 0.00000 -45.00070 0.00000
				CHANNELS 3 Zrotation Xrotation Yrotation
				JOINT LeftForeFoot
				{
					OFFSET 0.00000 -3.74824 0.00000
					CHANNELS 3 Zrotation Xrotation Yrotation
					JOINT LeftToeBase
					{
						OFFSET 0.00000 0.06325 14.43110
						CHANNELS 3 Zrotation Xrotation Yrotation
						End site
						{
							OFFSET 0.00000 0.00000 0.00000
						}
					}
				}
			}
		}
	}
}
MOTION
Frames: 4
Frame Time: 0.050000
-0.037798414959497255 0.01726743595199533 -0.031898852728486186 -0.03332901047698083 0.020104118977968165 -0.038410733920068135 -3.657459888363815 2.1600777805731584 -0.7695317487249576 -1.138983017169898 3.917280183070273 0.41976508996830386 -1.347731111332119 -1.4537762602696571 -1.348406545050665 0.2560004713022777 0.6494826049825939 -0.8362073554255438 0.06155542151885022 11.38700599437821 -0.8159216683671335 0.1475432662737441 -2.0451202501575168 -3.4516204951663068 0.7240323479654728 -18.54764740898695 -0.3092652111898477 -4.700211948015467 1.6455437519149532 -14.924516667341063 74.57626921733478 24.437393664007974 0.013423629878985831 -2.587988528227257 1.897397169249012 40.28586058522783 19.629951129493833 -0.09258707779434032 -3.723359781767856 4.541176538099221 -0.15698306841024806 -1.5950523180595702 -0.036252071665730426 -0.04140377255154406 -56.21384732349552 -0.047789283810974796 0.03256568067251609 -56.25149590172852 -38.80166839724345 0.03600794133688919 0.0016511938573052674 -0.006710806446789495 0.00861789088140942 0.017116078299676544 0.03445479552807715 -0.01778448601939453 0.013504552056424986 -36.678200556862684 -0.03596958760570409 0.021853380676673098 -0.03407431188917356 0.039090962986869954 0.0016972630256989346 -0.010953308691623156 0.041001173646305664 -0.0069233600401336585 -19.785385174952623 -0.018858320717343394 -0.021310167931853457 -0.020117683209083973 -0.011759194946705763 -0.04598102500580064 -0.009400744320798135 -0.007172007871608707 -0.025651898807625983 24.00741105443735 0.04264750088959028 -0.014950189504159907 28.883685469572583 -0.014009567003610257 -0.01160966596367231 28.884116016128544 0.016726411693634438 -0.02071306133893327 5.0742361414758275 1.2496774050541088 12.857433708150714 -71.7608523928561 26.731944317284714 -6.202703610841714 1.4400886647223254 -7.7537569688755985 -40.649551322079645 -8.358179216694753 1.5286537587155442 2.530813882696648 -0.4486535978069507 0.08599588080829453 -8.101665045018757 -0.014875992302672114 -0.022906359317053763 44.55132749342446 -0.03962775604339799 -0.04320778643475624 44.51912894076995 12.418598602139324 -0.039929851757573756 0.011487438100343937 -0.022017880886831993 0.004726756010242988 0.003237378986092601 -0.03508611059408493 -0.027205954035462505 0.022311196729716577 11.107561751807408 -0.03873265993297979 -0.020419080278326233 0.017592450703707276 0.01441184991570319 -0.013175274867836727 -0.03242417298766363 0.04448706669124898 0.0494933790272515 4.761497922470606 0.02785787220357871 -0.04171585609581972 -0.012976267917234361 0.015462018112747472 0.018237488381503256 -0.029772426588615265 -0.013587149607063292 0.0030158741193839016 -5.620790939603822 -0.016278851674687275 -0.031738239975814916 -6.707381373158664 -0.010076964279219466 -0.0007149031336772494 -6.6942336041617745 0.0024157209271241788 0.031762183362433305 0.008114862228667941 -0.01640031255266889 0.046288482069543044 8.012603845340585 3.518885706051599 -19.235243619600116 -0.04624629758988901 10.362914780069929 0.01895263612119611 -5.657859644830856 -15.671642507319259 3.1791111044009432 -0.0010920320462248227 -0.0031276329830205968 0.043988608972218866 0.04389044030064917 4.720883353204635 -0.0022048436385630928 12.45016771847269 -8.28276695242185 6.84423204348481 0.0189868839237883 46.41573686611365 0.015415471688840497 -4.292342681224719 -14.76232051189182 -3.8358824948224934 0.042953218652611216 0.037658559866630095 -0.04919168108090086 0.011294679827017618 -10.768781585032663 -0.007030776994988974 
-0.0031056252528841063 0.04143778740791339 -0.03345147023545313 -0.019414621857557324 0.007928555756522716 0.012399973874412365 -3.5275462387341814 2.2356714782703815 -0.7640076594842479 -1.210923889231139 3.850808059881671 0.43058224584725174 -1.3735875058321387 -1.4836391106910307 -1.2700106942741067 0.17419956432201972 0.5899688606969493 -0.8420221763139187 0.03858237495810864 11.453263158540693 -0.7533275934600281 0.1344640089569853 -1.886251909842635 -3.4033021844915954 0.6532672905509498 -18.438824034737653 -0.3415418616740008 -4.6778095889722415 1.6361149161871775 -14.782549453137136 73.92366634024225 24.381392230008966 0.587561022912509 -2.454511979000318 1.665213207641143 42.15313855315363 19.80315496940303 -0.06953631210128687 -3.866459877437774 4.503912989737436 -0.10139227718831464 -1.6429414149547577 -0.02866842693099458 -0.005806903485864133 -56.19979541558956 -0.04907390510902758 -0.01269725077033975 -56.23121754900836 -38.75954157916153 0.0046483155713713895 -0.01026063493057359 -0.035262605055720604 0.0495210913235777 -0.010278744927169637 -0.047244550687179664 0.00344288961634803 -0.006766275673398353 -36.68598139156289 -0.03913146808249781 -0.025953311041863658 0.014786239992614556 -0.010114278842316634 -0.011582055161374472 0.010431381561524037 -0.008005410946906957 -0.008604457596367193 -19.75535665675291 -0.031546243468688166 0.00617683873965437 -0.036454235539501036 -0.0018292689817355908 -0.0010247773953258295 0.008245080066169126 -0.032375468573326203 -0.024777930875220042 24.03072845322214 -0.001291488516422398 -0.028979588609611383 28.848799399935125 0.007335363400174433 0.017439205199786312 28.899902555947147 -0.01997697679651636 -0.018921869066242842 5.063273725026076 1.2172637395431667 12.873170640167222 -71.50095314163812 26.64955045444792 -6.578190325751983 1.597526888523348 -7.81242995030176 -42.62708520533802 -8.44832319037124 1.5629842314648021 2.301788934679053 -0.5025985596547748 0.07195647123118888 -8.135641283773092 -0.04256603332681131 0.04065980809384401 44.531478876912324 0.01289987560407831 0.04600350310072629 44.596728427262946 12.411506770723763 0.017248576585804504 -0.00519473439127882 0.04099048796140626 0.045562708580900724 0.041704266941961415 -0.01139576869354276 -0.047898267587449035 0.013364340062495999 11.106374372917253 0.007188109586778891 -0.0031826204609352415 0.008384143429817312 -0.01751197234141235 0.030301590832079554 0.028474570314066375 -0.02341648531519705 0.028774769336849637 4.814244586040072 0.049818012230490795 0.004187145963620351 -0.046280031772855466 0.04628861599688491 -0.01201313478010133 0.010428275680394348 0.012853091459277563 -0.015141108199466607 -5.588613347789044 0.04056356967439245 0.017064022755675975 -6.73766271064351 -0.036458900679215575 0.03312629611355378 -6.7218004159836395 0.026321765058704497 -0.031239048169786524 0.016894441784946312 0.024161230785688027 -0.002712636161237587 8.03609698126609 3.5023828052690122 -19.175404900421107 -0.0076682492408716215 10.352077915591245 -0.019313816959010712 -5.628575106165648 -15.703164992653662 3.2102049798648573 0.009841596695040125 0.0319923428352409 0.007800774109046607 -0.023140744577681966 4.716865498955143 0.022201383848336118 12.454667608963083 -8.267716354668293 6.875766465601814 0.03987108757180518 46.40951008457919 0.019601683489610538 -4.333484786941166 -14.760624630759995 -3.800797888525312 -0.0051574523475376695 0.0025342838785850823 0.008379514429718867 0.02057557349857227 -10.766965734652088 -0.04136688424480605 
-0.044710886057136155 0.01420791921479128 -0.023555636944257437 -0.007809785804248419 0.01222067834310035 0.018590794035166797 -3.365539576808108 2.1998124335007887 -0.8053656178320459 -1.0925422524625779 3.8696282084912323 0.4077119268372181 -1.3125849913548666 -1.5301578994228162 -1.1927770198556806 0.19549461189763445 0.5824172526335349 -0.8635710679385533 0.025111767638577958 11.57641405867721 -0.7952949033040787 0.21167254524103857 -1.6733265177779917 -3.609904611093754 0.7276575187585146 -18.045152217165473 -0.3334259853873743 -4.613147547263878 1.6879691510866128 -14.564726531699725 73.21721697960291 24.297205385531164 1.7699719695712566 -1.7720273811004803 1.5036279995782622 45.3332854306815 19.72172078875443 -0.13796473932808045 -3.884704282591761 4.53464299365221 -0.11484058809891516 -1.6113832128136782 -0.03964129849249649 -0.048897540852022366 -56.23899614011404 0.03721369755432365 0.01590888887953319 -56.204531478610704 -38.75694991349578 0.0012145105581608214 0.03246240670089298 -0.045420467560139136 0.031142774452688496 0.01052535600488467 -0.0068541890917467475 -0.0462473594469731 0.04835215321154067 -36.6509731248197 0.020724069605172382 0.039015562220045666 0.04450083361612772 -0.026590785497579598 -0.017992781808091825 0.03333307754042579 0.01865409107032847 0.03602958690857735 -19.75098242841489 0.016403502225319305 -0.010436979415174111 -0.031981302577813744 0.024580295618150595 0.01590772416281199 0.04116473341472398 0.012506935814053387 0.005204730347406774 24.07406659317238 -0.04926062684260937 -0.008045033569287567 28.89020384775734 0.022990475521132047 0.031047590319856135 28.874553104753918 -0.00038996424131090276 -0.03469493628872403 5.187185236083346 1.2375608792366097 12.81384135258748 -70.58720064118512 26.716574377858695 -7.563037263170866 0.660150867716937 -7.648271947458716 -46.79835328379084 -8.565262806282112 1.0216980231045616 2.40636187679345 -0.44872386748225823 0.01806935794450125 -8.134259641482066 0.022906836315950457 -0.014506636310703851 44.57141046879062 -0.03268145631366101 0.01836296540278332 44.558485131306014 12.474288152682714 0.022907640282578624 -0.003911382448559898 0.004483263610812449 -0.03833207934876196 0.009908509938617171 0.04026748092140646 0.000631746049244384 -0.006267818306599421 11.080894138702664 0.03573574862149031 0.003579417169827706 -0.03291090872015614 -0.002159788923456736 0.03667946113159684 0.020586395863440507 -0.020816203276765536 0.02046562331804639 4.7453339119355356 -0.01001501422812555 0.017617902663260347 -0.03960726194444921 0.028058024118011633 -0.03883759334570986 -0.02033192133414565 0.04160886409556635 0.034031077714927443 -5.650100943096694 -0.027517926480332505 -0.009098311091045561 -6.6729957131551005 -0.00789915084375277 0.01164215522701532 -6.747989928169783 -0.0002032911861586725 0.043563527067585 0.028137090545795326 0.0012208235446813113 0.018988731428814454 8.03605683141124 3.474786525028179 -19.256422814066973 -0.012466969539065806 10.443384314313578 -0.020545337637920182 -5.670424900426401 -15.659408165944923 3.1898775016524623 -0.04293178848738743 0.0336152775709234 0.03237333164481554 0.034932814195827784 4.70130167524662 0.019422118209962855 12.41409656642178 -8.225745505170359 6.8912817756207545 -0.025139391992379516 46.39947783415569 -0.02660639051263504 -4.339469810686126 -14.738295373841998 -3.844230692292355 0.012681347053975571 -0.039156719732893794 -0.018337342841273477 0.027482141586519262 -10.76535200442038 -0.03082399502166082 
-0.020116755116143088 -0.005793006865038281 -0.026771881502837398 -0.014352380536818532 -0.04054130147836136 0.015130673003335407 -3.1971215614930375 2.1607569810459553 -0.7616086814504953 -1.1493509621841909 3.8849733443160033 0.40678777739549404 -1.3089450108575955 -1.4846330165347421 -1.1453035943244305 0.18667935278459424 0.6154209118505543 -0.8391926941778165 0.0621001473426532 11.659728351571644 -0.8902352642328136 0.1811945590854989 -1.4986097992486926 -3.8815471380925195 0.7344336648047353 -17.650137547876174 -0.38655962654734893 -4.62411647097387 1.7025627892103403 -14.40591560131805 72.56370540403496 24.114256537081708 2.9694894619368 -0.21949086713029253 1.2737594694554226 49.577144808751555 19.444927643104553 -0.10416055809599947 -3.809129083854079 4.4972552062821 -0.07772277980884139 -1.573653200518867 -0.011929624087909131 0.02052941950092644 -56.25405589366948 0.026315933012690248 -0.0490121196969803 -56.28352441637998 -38.77794005395039 0.019191976418520957 -0.013082053694242018 -0.04340436433617384 -0.016129517759476006 0.0019958948295901694 -0.02733443092571796 0.0241777637064802 -0.01837635856296187 -36.676527053653494 0.03463394591714857 0.04184985995165615 -0.03768135171879538 -0.02969013627823404 -0.014282231808487042 -0.018246657070452737 0.0005638037628206456 -0.016013159815754987 -19.779157730378937 0.019959582321448024 -0.03980487796732524 -0.0331676310091586 0.03462802134573007 -0.0015131419124147863 0.016148362887618152 0.014975352596765535 0.008600512572215316 24.048156845298863 0.04263387166301847 -0.008250414687980977 28.84044060379724 0.0417436787959359 -0.03521873139064625 28.896310353088552 0.0393897310995817 0.008198019007483091 5.4107974195203425 1.2804397229003572 12.725393286091474 -69.4326677916422 27.19320963086554 -8.90953532611255 -1.6854348860746893 -6.944295615039845 -53.80195915454532 -8.782992443986336 -0.03499825769221372 2.787832985333823 -0.5173959255603524 0.040714385630066866 -8.152323767926656 -0.04891230772356183 0.012623501519897164 44.54352871768418 -0.041568600152094265 0.011669958422680683 44.59721138207757 12.435164646897563 0.034410062893039696 -0.006584914901045849 0.01655704719975031 0.012598788900629413 0.04255679936050947 -0.00761184762847702 -0.04693128350197475 -0.03589989566356161 11.059800055857552 -0.04665767201153248 -0.008261507169042743 0.00848519350626615 -0.009243494472034123 -0.04358141914606202 0.03630702953595994 -0.03788152255604578 0.04789139682528424 4.729842898886313 0.0008886119195445467 0.043792492036612854 0.018456792249606162 -0.039688133046830776 -0.03463593832633518 0.004747492580927753 0.028100287803852195 -0.03839202214715318 -5.618964468486525 -0.017771350696523382 -0.0013083630690370939 -6.6979807652051315 -0.04171344190438832 -0.0013723399925056408 -6.689945598831851 -0.011985534696524776 0.04261684493275493 -0.025132631802091243 0.012982916791700234 -0.00837171508116892 8.023558774561515 3.5095442548336147 -19.230065970245914 -0.036166917828606336 10.407914449571928 -0.029485430466227706 -5.642258074171219 -15.643270095476419 3.185544638617687 -0.03322040935284369 -0.0029776718113528923 0.048906747223236964 -0.004911681268126783 4.691251620680945 -0.049564763323714116 12.483998063632553 -8.283822058642986 6.889765484281393 -0.048744372664817286 46.33400721006922 -0.026842793526539854 -4.343219631871275 -14.759620726581307 -3.869199952505323 -0.028286150044688995 0.0225180610014329 0.0050389375900837426 -0.03196728607980271 -10.774099983723257 -0.023173324028255688 
